<svg xmlns="http://www.w3.org/2000/svg" xmlns:xlink="http://www.w3.org/1999/xlink" width="500" zoomAndPan="magnify" viewBox="0 0 375 374.999991" height="500" preserveAspectRatio="xMidYMid meet" version="1.0"><defs><clipPath id="5d06841f25"><path d="M 66.078125 158 L 96 158 L 96 199 L 66.078125 199 Z M 66.078125 158 " clip-rule="nonzero"/></clipPath><clipPath id="61e424cf54"><path d="M 173 66.078125 L 197 66.078125 L 197 140 L 173 140 Z M 173 66.078125 " clip-rule="nonzero"/></clipPath><clipPath id="05de87a690"><path d="M 66.078125 184 L 151 184 L 151 245 L 66.078125 245 Z M 66.078125 184 " clip-rule="nonzero"/></clipPath><clipPath id="9548016ce6"><path d="M 266 177 L 309.078125 177 L 309.078125 208 L 266 208 Z M 266 177 " clip-rule="nonzero"/></clipPath><clipPath id="fa8055f800"><path d="M 187 66.078125 L 200 66.078125 L 200 96 L 187 96 Z M 187 66.078125 " clip-rule="nonzero"/></clipPath><clipPath id="2cd60bc73f"><path d="M 145 286 L 185 286 L 185 309.078125 L 145 309.078125 Z M 145 286 " clip-rule="nonzero"/></clipPath></defs><path fill="#ffffff" d="M 228.734375 266.285156 C 247.4375 251.925781 262.464844 234.800781 272.402344 212.863281 C 271.476562 213.078125 271.03125 213.136719 270.609375 213.28125 C 264.300781 215.398438 258.007812 217.558594 251.679688 219.648438 C 251.144531 219.800781 250.675781 220.070312 250.265625 220.449219 C 249.859375 220.828125 249.558594 221.277344 249.367188 221.800781 C 246.824219 227.476562 243.75 232.851562 240.144531 237.917969 C 237.304688 242.027344 234.453125 246.128906 231.589844 250.222656 C 229.972656 252.378906 228.664062 254.710938 227.671875 257.214844 C 226.722656 259.835938 226.546875 262.425781 227.746094 265.046875 C 228.03125 265.496094 228.363281 265.90625 228.734375 266.285156 Z M 228.734375 266.285156 " fill-opacity="1" fill-rule="nonzero"/><path fill="#ffffff" d="M 278.660156 107.460938 C 277.363281 111.121094 276.101562 114.796875 274.738281 118.460938 C 272.914062 123.308594 270.910156 128.097656 269.84375 133.191406 C 269.320312 135.722656 268.941406 138.289062 268.636719 140.859375 C 268.546875 141.882812 268.636719 142.882812 268.914062 143.871094 C 268.957031 144.152344 269.058594 144.410156 269.226562 144.644531 C 269.390625 144.878906 269.597656 145.0625 269.847656 145.199219 C 270.101562 145.335938 270.367188 145.40625 270.652344 145.417969 C 270.9375 145.425781 271.210938 145.371094 271.472656 145.253906 C 272.269531 145.007812 273.019531 144.65625 273.71875 144.199219 C 274.871094 143.425781 275.972656 142.585938 277.027344 141.683594 C 282.652344 136.871094 287.171875 131.179688 290.578125 124.605469 C 290.71875 124.335938 290.835938 124.027344 290.960938 123.757812 C 287.347656 117.925781 283.273438 112.433594 278.738281 107.289062 C 278.714844 107.328125 278.683594 107.390625 278.660156 107.460938 Z M 278.660156 107.460938 " fill-opacity="1" fill-rule="nonzero"/><path fill="#ffffff" d="M 225.140625 244.625 C 226.1875 244.242188 227.132812 243.6875 227.976562 242.964844 C 229.351562 241.730469 230.597656 240.378906 231.722656 238.910156 C 235.640625 233.703125 238.199219 227.773438 240.132812 221.546875 C 240.238281 221.226562 240.363281 220.824219 239.675781 220.320312 C 234.1875 221.964844 228.503906 223.742188 222.738281 225.585938 C 221.417969 229.433594 220.695312 233.394531 220.566406 237.457031 C 220.53125 238.476562 220.570312 239.488281 220.691406 240.496094 C 220.808594 241.417969 221.0625 242.296875 221.449219 243.136719 C 221.582031 243.488281 221.785156 243.800781 222.046875 244.070312 C 222.3125 244.339844 222.621094 244.542969 222.972656 244.683594 C 223.320312 244.824219 223.683594 244.890625 224.0625 244.878906 C 224.441406 244.871094 224.800781 244.785156 225.140625 244.625 Z M 225.140625 244.625 " fill-opacity="1" fill-rule="nonzero"/><path fill="#ffffff" d="M 213.320312 281.636719 C 213.75 281.460938 214.160156 281.246094 214.546875 280.992188 C 217.070312 279.246094 219.363281 277.242188 221.429688 274.972656 C 221.628906 274.773438 221.761719 274.535156 221.832031 274.257812 C 221.898438 273.984375 221.894531 273.710938 221.8125 273.441406 C 221.726562 273.082031 221.609375 272.726562 221.511719 272.371094 C 220.117188 267.253906 219.46875 262.042969 219.566406 256.742188 C 219.566406 255.832031 219.566406 254.929688 219.566406 254.019531 L 218.988281 253.914062 C 218.660156 254.453125 218.363281 255.007812 218.097656 255.578125 C 216.394531 259.777344 214.625 263.964844 213.058594 268.207031 C 212.207031 270.554688 211.488281 272.945312 210.902344 275.375 C 210.535156 276.8125 210.355469 278.277344 210.363281 279.761719 C 210.402344 281.746094 211.515625 282.382812 213.320312 281.636719 Z M 213.320312 281.636719 " fill-opacity="1" fill-rule="nonzero"/><path fill="#ffffff" d="M 202 240.3125 C 199.015625 244.183594 196.964844 248.496094 195.851562 253.253906 C 194.886719 257.429688 194.519531 261.660156 194.746094 265.9375 C 194.878906 268.617188 194.964844 271.296875 195.035156 273.984375 C 195.105469 276.480469 195.070312 278.984375 195.1875 281.507812 C 195.273438 283.449219 195.480469 285.382812 195.71875 287.296875 C 195.839844 288.277344 195.980469 289.316406 196.960938 289.875 C 197.167969 289.828125 197.363281 289.75 197.542969 289.636719 C 197.882812 289.320312 198.164062 288.964844 198.390625 288.558594 C 198.941406 287.402344 199.46875 286.199219 199.902344 284.980469 C 200.90625 282.199219 201.785156 279.367188 202.832031 276.601562 C 204.769531 271.5 206.804688 266.4375 208.78125 261.355469 C 210.890625 256.207031 212.566406 250.921875 213.8125 245.5 C 214.71875 241.105469 214.980469 236.675781 214.59375 232.207031 C 214.519531 231.230469 214.472656 230.222656 213.824219 229.347656 C 213.519531 229.441406 213.226562 229.5625 212.949219 229.71875 C 208.804688 232.738281 205.15625 236.269531 202 240.3125 Z M 202 240.3125 " fill-opacity="1" fill-rule="nonzero"/><path fill="#ffffff" d="M 243.882812 122.808594 L 243.542969 123.832031 C 244.140625 123.738281 244.121094 123.304688 243.882812 122.808594 Z M 243.882812 122.808594 " fill-opacity="1" fill-rule="nonzero"/><path fill="#ffffff" d="M 242.628906 79.910156 C 236.492188 87.5625 230.351562 95.210938 224.203125 102.859375 C 223.769531 103.34375 223.382812 103.859375 223.046875 104.417969 C 220.761719 108.585938 219.148438 113 218.207031 117.660156 C 218.117188 118.300781 218.132812 118.9375 218.246094 119.570312 C 218.28125 119.707031 218.34375 119.828125 218.429688 119.9375 C 218.519531 120.046875 218.625 120.132812 218.753906 120.195312 C 218.878906 120.257812 219.011719 120.289062 219.152344 120.289062 C 219.292969 120.292969 219.425781 120.265625 219.554688 120.207031 C 220.34375 119.867188 220.960938 119.335938 221.40625 118.605469 L 229.359375 108.609375 C 235.921875 100.339844 242.480469 92.078125 249.042969 83.820312 C 249.226562 83.585938 249.429688 83.351562 249.621094 83.113281 C 247.445312 81.820312 245.226562 80.585938 242.964844 79.421875 C 242.867188 79.585938 242.75 79.753906 242.628906 79.910156 Z M 242.628906 79.910156 " fill-opacity="1" fill-rule="nonzero"/><path fill="#ffffff" d="M 219.84375 205.304688 C 218.65625 207.394531 217.582031 209.542969 216.621094 211.746094 C 216.179688 212.765625 215.886719 213.828125 215.746094 214.929688 C 215.566406 216.199219 216.523438 216.910156 217.65625 216.324219 C 219.082031 215.652344 220.394531 214.8125 221.605469 213.800781 C 224.742188 210.9375 227.929688 208.089844 230.765625 204.933594 C 236.269531 198.804688 241.648438 192.578125 246.90625 186.25 C 251.75 180.3125 255.433594 173.730469 257.957031 166.5 C 260.519531 159.414062 261.9375 152.074219 262.871094 144.628906 C 262.898438 144.128906 262.898438 143.628906 262.871094 143.128906 C 261.8125 143.664062 261.523438 144.472656 261.082031 145.132812 C 257.164062 150.96875 253.34375 156.871094 249.332031 162.636719 C 241.199219 174.328125 232.957031 185.941406 224.792969 197.617188 C 223.058594 200.113281 221.390625 202.6875 219.84375 205.304688 Z M 219.84375 205.304688 " fill-opacity="1" fill-rule="nonzero"/><path fill="#ffffff" d="M 255.132812 88.074219 C 250.042969 94.910156 244.496094 101.390625 238.824219 107.757812 C 232.285156 115.074219 225.761719 122.40625 219.097656 129.601562 C 217.804688 130.992188 216.738281 132.539062 215.890625 134.238281 C 215.046875 135.9375 214.464844 137.722656 214.136719 139.59375 C 213.628906 142.316406 213.121094 145.046875 212.621094 147.777344 C 212.476562 148.59375 212.25 149.421875 213.125 150.261719 C 213.691406 150.109375 214.230469 149.894531 214.746094 149.613281 C 216.238281 148.492188 217.515625 147.167969 218.582031 145.636719 C 225.597656 136.316406 232.625 127.007812 239.660156 117.707031 C 246.351562 108.832031 253.042969 99.96875 259.738281 91.113281 C 259.945312 90.835938 260.167969 90.535156 260.386719 90.292969 C 258.898438 89.175781 257.378906 88.09375 255.835938 87.046875 C 255.605469 87.398438 255.363281 87.734375 255.132812 88.074219 Z M 255.132812 88.074219 " fill-opacity="1" fill-rule="nonzero"/><path fill="#ffffff" d="M 223.773438 84.554688 C 222.820312 88.226562 221.847656 91.890625 220.878906 95.554688 C 220.664062 96.359375 220.5 97.171875 220.390625 97.996094 C 220.429688 98.414062 220.53125 98.816406 220.695312 99.203125 C 221.152344 99.003906 221.589844 98.769531 222.003906 98.496094 C 223.167969 97.40625 224.078125 96.140625 224.742188 94.691406 C 227.855469 88.703125 230.988281 82.722656 234.136719 76.746094 C 234.339844 76.359375 234.554688 75.984375 234.765625 75.589844 C 232.175781 74.496094 229.539062 73.492188 226.867188 72.582031 C 225.839844 76.644531 224.800781 80.601562 223.773438 84.554688 Z M 223.773438 84.554688 " fill-opacity="1" fill-rule="nonzero"/><path fill="#ffffff" d="M 207.105469 83.820312 C 206.613281 89.8125 205.867188 95.785156 205.148438 101.765625 C 204.742188 105.15625 204.15625 108.539062 203.6875 111.925781 C 203.542969 112.929688 203.480469 113.941406 203.503906 114.957031 C 203.503906 115.050781 203.519531 115.140625 203.546875 115.230469 C 203.570312 115.320312 203.609375 115.40625 203.65625 115.484375 C 203.703125 115.566406 203.761719 115.636719 203.828125 115.703125 C 203.894531 115.769531 203.96875 115.824219 204.050781 115.867188 C 204.132812 115.914062 204.21875 115.949219 204.308594 115.972656 C 204.398438 115.996094 204.488281 116.007812 204.582031 116.003906 C 204.675781 116.003906 204.765625 115.992188 204.855469 115.96875 C 204.945312 115.941406 205.03125 115.90625 205.113281 115.859375 C 205.847656 115.46875 206.523438 114.992188 207.140625 114.429688 C 209.507812 112.171875 211.414062 109.574219 212.859375 106.632812 C 213.496094 105.179688 213.863281 103.660156 213.957031 102.074219 C 215.15625 91.683594 216.34375 81.292969 217.519531 70.902344 C 217.558594 70.542969 217.617188 70.191406 217.683594 69.835938 C 214.480469 69.027344 211.214844 68.339844 207.898438 67.78125 C 207.675781 73.128906 207.542969 78.488281 207.105469 83.820312 Z M 207.105469 83.820312 " fill-opacity="1" fill-rule="nonzero"/><path fill="#ffffff" d="M 87.652344 120.269531 C 92.953125 127.398438 98.257812 134.527344 103.566406 141.660156 C 110.210938 150.5625 116.929688 159.40625 124.226562 167.792969 C 126.777344 170.730469 129.433594 173.582031 132.101562 176.394531 C 133.003906 177.328125 134.003906 178.144531 135.09375 178.84375 C 136.253906 179.609375 137.261719 179.042969 137.375 177.589844 C 137.453125 176.757812 137.429688 175.925781 137.300781 175.101562 C 135.640625 165.121094 133.25 155.339844 129.097656 146.070312 C 128.683594 145.144531 128.246094 144.21875 127.796875 143.308594 C 124.660156 137.003906 124.589844 136.941406 119.222656 132.3125 C 111.171875 125.324219 103.128906 118.34375 95.085938 111.367188 C 94.667969 111.003906 94.257812 110.632812 93.851562 110.261719 C 91.417969 113.222656 89.125 116.28125 86.96875 119.445312 C 87.214844 119.722656 87.445312 119.992188 87.652344 120.269531 Z M 87.652344 120.269531 " fill-opacity="1" fill-rule="nonzero"/><path fill="#ffffff" d="M 110.125 204.289062 C 111.34375 206.042969 112.691406 207.6875 114.175781 209.222656 C 115.300781 210.414062 116.585938 211.382812 118.039062 212.136719 C 119.488281 212.894531 121.027344 213.386719 122.644531 213.621094 C 123.5625 213.71875 124.46875 213.644531 125.359375 213.402344 C 126.269531 213.1875 126.621094 212.371094 126.378906 211.433594 C 126.269531 211.082031 126.136719 210.734375 125.984375 210.398438 C 122.539062 202.109375 118.933594 193.890625 114.703125 185.957031 C 110.070312 177.277344 104.480469 169.207031 97.226562 162.441406 C 94.246094 159.667969 91.15625 157.011719 88.042969 154.394531 C 83.855469 150.878906 79.601562 147.449219 75.382812 143.976562 C 75.070312 143.714844 74.761719 143.441406 74.449219 143.164062 C 73.753906 144.9375 73.097656 146.726562 72.480469 148.535156 C 72.71875 148.667969 72.941406 148.820312 73.148438 149 C 75.800781 151.476562 78.152344 154.214844 80.203125 157.207031 C 83.769531 162.417969 87.3125 167.625 90.621094 172.929688 C 94.847656 179.671875 98.820312 186.578125 102.980469 193.363281 C 105.277344 197.066406 107.664062 200.707031 110.125 204.289062 Z M 110.125 204.289062 " fill-opacity="1" fill-rule="nonzero"/><g clip-path="url(#5d06841f25)"><path fill="#ffffff" d="M 67.433594 173.871094 C 74.925781 181.046875 82.402344 188.226562 89.871094 195.417969 C 90.679688 196.171875 91.527344 196.886719 92.410156 197.554688 C 92.800781 197.804688 93.214844 197.996094 93.65625 198.132812 C 93.828125 198.210938 94.007812 198.242188 94.195312 198.230469 C 94.386719 198.214844 94.558594 198.15625 94.714844 198.050781 C 94.875 197.945312 94.996094 197.8125 95.085938 197.644531 C 95.171875 197.476562 95.210938 197.296875 95.207031 197.109375 C 95.214844 195.691406 94.890625 194.355469 94.234375 193.101562 C 93.898438 192.441406 93.53125 191.800781 93.125 191.179688 C 86.214844 179.539062 78.398438 168.539062 69.675781 158.1875 C 68.4375 163.171875 67.519531 168.214844 66.925781 173.316406 C 67.097656 173.503906 67.238281 173.703125 67.433594 173.871094 Z M 67.433594 173.871094 " fill-opacity="1" fill-rule="nonzero"/></g><path fill="#ffffff" d="M 307.875 197.59375 C 301.808594 199.851562 295.71875 202.066406 289.652344 204.308594 C 288.882812 204.59375 288.132812 204.886719 287.339844 205.242188 C 287.238281 205.867188 287.128906 206.398438 287.078125 206.941406 C 286.699219 210.296875 285.683594 213.449219 284.039062 216.394531 C 282.492188 219.25 280.707031 221.953125 278.691406 224.5 C 274.878906 229.285156 270.769531 233.800781 266.359375 238.042969 C 262.140625 242.199219 257.863281 246.296875 253.660156 250.476562 C 251.960938 252.171875 250.382812 253.996094 248.792969 255.796875 C 248.253906 256.410156 247.679688 257.070312 247.976562 258.152344 C 248.496094 258.230469 249.011719 258.222656 249.527344 258.125 C 251.007812 257.59375 252.457031 256.980469 253.871094 256.289062 C 265.265625 250.550781 275.699219 243.449219 284.835938 234.484375 C 291.015625 228.34375 296.832031 221.878906 302.289062 215.09375 C 303.941406 213.070312 305.554688 211.039062 307.199219 208.996094 C 307.875 205.171875 308.355469 201.273438 308.691406 197.332031 C 308.414062 197.414062 308.136719 197.476562 307.875 197.59375 Z M 307.875 197.59375 " fill-opacity="1" fill-rule="nonzero"/><path fill="#ffffff" d="M 287.539062 239.601562 C 286.609375 240.386719 285.730469 241.167969 285.449219 242.441406 C 285.265625 243.292969 285.769531 244 286.609375 243.808594 C 287.699219 243.609375 288.75 243.273438 289.757812 242.808594 C 292.511719 241.414062 295.210938 239.914062 297.929688 238.429688 C 299.660156 234.683594 301.195312 230.859375 302.53125 226.957031 C 297.53125 231.148438 292.546875 235.386719 287.539062 239.601562 Z M 287.539062 239.601562 " fill-opacity="1" fill-rule="nonzero"/><path fill="#ffffff" d="M 136.59375 77.6875 C 138.128906 80.105469 139.691406 82.511719 141.109375 85.003906 C 142.667969 87.734375 144.066406 90.558594 145.5625 93.324219 C 146.609375 95.28125 147.738281 97.199219 148.757812 99.171875 C 150.972656 103.449219 154.480469 106.378906 158.597656 108.664062 C 159.496094 109.140625 160.4375 109.515625 161.414062 109.789062 C 161.601562 109.832031 161.785156 109.828125 161.96875 109.78125 C 162.152344 109.734375 162.3125 109.648438 162.453125 109.519531 C 162.597656 109.394531 162.699219 109.242188 162.765625 109.0625 C 162.832031 108.886719 162.851562 108.703125 162.828125 108.515625 C 162.640625 107.515625 162.371094 106.539062 162.019531 105.585938 C 158.742188 96.324219 155.460938 87.085938 152.175781 77.871094 C 151.476562 75.910156 150.777344 73.953125 150.09375 71.988281 C 145.414062 73.503906 140.84375 75.300781 136.386719 77.378906 C 136.460938 77.476562 136.53125 77.578125 136.59375 77.6875 Z M 136.59375 77.6875 " fill-opacity="1" fill-rule="nonzero"/><path fill="#ffffff" d="M 280.300781 178.953125 C 279.671875 180.089844 279.15625 181.273438 278.757812 182.507812 C 278.558594 183.125 278.480469 183.757812 278.523438 184.40625 C 278.527344 184.523438 278.550781 184.636719 278.585938 184.746094 C 278.621094 184.859375 278.671875 184.964844 278.734375 185.0625 C 278.796875 185.160156 278.871094 185.25 278.953125 185.328125 C 279.039062 185.40625 279.132812 185.472656 279.234375 185.53125 C 279.339844 185.585938 279.445312 185.625 279.558594 185.65625 C 279.671875 185.683594 279.785156 185.695312 279.902344 185.695312 C 280.019531 185.691406 280.132812 185.675781 280.246094 185.644531 C 280.359375 185.617188 280.464844 185.570312 280.566406 185.511719 C 281.199219 185.128906 281.808594 184.710938 282.402344 184.261719 C 290.390625 178.566406 298.375 172.871094 306.359375 167.167969 C 306.648438 166.960938 306.9375 166.757812 307.261719 166.554688 C 306.25 160.742188 304.820312 155.035156 302.96875 149.433594 L 302.914062 149.492188 C 296.683594 156.347656 290.847656 163.523438 285.398438 171.019531 C 283.574219 173.589844 281.925781 176.273438 280.300781 178.953125 Z M 280.300781 178.953125 " fill-opacity="1" fill-rule="nonzero"/><path fill="#ffffff" d="M 295.8125 135.296875 C 292.160156 139.136719 288.152344 142.550781 283.785156 145.550781 C 279.574219 148.398438 275.246094 151.082031 270.929688 153.769531 C 269.914062 154.324219 269.261719 155.160156 268.972656 156.28125 C 264.050781 174.589844 254.4375 190.183594 241.402344 203.789062 C 239.480469 205.796875 237.464844 207.707031 235.570312 209.738281 C 234.742188 210.601562 234.050781 211.566406 233.503906 212.632812 C 232.828125 214.039062 233.503906 215.207031 235.085938 215.527344 C 236.835938 215.820312 238.574219 215.75 240.296875 215.3125 C 244.441406 214.402344 248.140625 212.582031 251.390625 209.847656 C 254.421875 207.234375 257.121094 204.316406 259.496094 201.097656 C 262.800781 196.617188 265.789062 191.9375 268.460938 187.058594 C 272.035156 180.691406 275.519531 174.25 279.105469 167.882812 C 282.675781 161.371094 286.761719 155.210938 291.371094 149.394531 C 293.757812 146.429688 296.382812 143.691406 299.238281 141.179688 C 299.394531 141.039062 299.5625 140.90625 299.730469 140.773438 C 298.816406 138.582031 297.832031 136.414062 296.796875 134.285156 C 296.460938 134.644531 296.128906 134.960938 295.8125 135.296875 Z M 295.8125 135.296875 " fill-opacity="1" fill-rule="nonzero"/><path fill="#ffffff" d="M 242.136719 125.082031 C 239.890625 128.015625 237.621094 130.941406 235.445312 133.925781 C 232.625 137.816406 229.796875 141.699219 227.132812 145.699219 C 222.929688 152.078125 219.796875 158.941406 217.738281 166.296875 C 216.117188 172.085938 214.871094 177.953125 213.992188 183.898438 C 213.695312 185.8125 213.414062 187.742188 213.257812 189.6875 C 213.171875 190.609375 213.203125 191.53125 213.34375 192.449219 C 213.59375 194.082031 214.675781 194.59375 216.164062 193.765625 C 216.980469 193.324219 217.714844 192.773438 218.367188 192.113281 C 219.746094 190.746094 221.046875 189.308594 222.269531 187.800781 C 227.085938 181.671875 231.214844 175.113281 234.65625 168.117188 C 235.109375 167.210938 235.472656 166.261719 235.914062 165.347656 C 236.394531 164.339844 236.691406 163.28125 236.808594 162.167969 C 236.925781 161.058594 236.855469 159.960938 236.597656 158.875 C 236.019531 156.171875 235.671875 153.410156 235.378906 150.65625 C 234.800781 145.191406 235.925781 139.96875 238.148438 135.027344 C 239.542969 131.910156 241.210938 128.917969 242.738281 125.863281 C 243.050781 125.238281 243.617188 124.707031 243.460938 123.894531 C 242.726562 123.964844 242.5 124.605469 242.136719 125.082031 Z M 242.136719 125.082031 " fill-opacity="1" fill-rule="nonzero"/><g clip-path="url(#61e424cf54)"><path fill="#ffffff" d="M 173.402344 67.339844 C 173.78125 70.46875 174.207031 73.585938 174.441406 76.726562 C 174.898438 82.730469 175.285156 88.734375 175.597656 94.738281 C 175.996094 102.5 176.449219 110.261719 177.289062 117.996094 C 177.742188 122.890625 179.351562 127.371094 182.109375 131.4375 C 183.15625 132.960938 184.273438 134.441406 185.367188 135.929688 C 186.414062 137.265625 187.695312 138.304688 189.21875 139.050781 C 189.628906 139.265625 190.0625 139.414062 190.519531 139.5 C 190.746094 139.5625 190.976562 139.582031 191.210938 139.558594 C 191.445312 139.535156 191.664062 139.46875 191.875 139.363281 C 192.082031 139.253906 192.265625 139.113281 192.421875 138.9375 C 192.578125 138.761719 192.695312 138.5625 192.777344 138.34375 C 193.097656 137.570312 193.328125 136.773438 193.472656 135.953125 C 194.578125 129.289062 195.632812 122.640625 196.765625 115.957031 C 196.917969 114.644531 196.710938 113.390625 196.140625 112.195312 L 185.523438 84.457031 C 183.40625 78.929688 181.285156 73.398438 179.15625 67.875 C 178.972656 67.394531 178.804688 66.90625 178.636719 66.410156 C 176.855469 66.535156 175.082031 66.710938 173.316406 66.914062 C 173.355469 67.054688 173.382812 67.195312 173.402344 67.339844 Z M 173.402344 67.339844 " fill-opacity="1" fill-rule="nonzero"/></g><path fill="#ffffff" d="M 265.429688 95.773438 C 261.324219 102.484375 257.242188 109.210938 253.625 116.195312 C 249.308594 124.519531 245.769531 133.144531 243.605469 142.296875 C 242.785156 145.386719 242.675781 148.503906 243.277344 151.644531 C 243.503906 152.726562 243.679688 154.019531 245.011719 154.1875 C 246.125 154.324219 246.808594 153.347656 247.386719 152.507812 C 252.015625 145.707031 256.71875 138.933594 261.277344 132.074219 C 263.65625 128.40625 265.519531 124.488281 266.871094 120.328125 C 268.863281 114.460938 270.957031 108.625 273.058594 102.789062 C 273.195312 102.414062 273.277344 101.992188 273.417969 101.59375 C 271.027344 99.226562 268.558594 96.960938 266.007812 94.789062 C 265.816406 95.125 265.625 95.457031 265.429688 95.773438 Z M 265.429688 95.773438 " fill-opacity="1" fill-rule="nonzero"/><path fill="#ffffff" d="M 245.3125 294.296875 C 242.246094 294.183594 239.230469 293.734375 236.261719 292.953125 C 232.746094 292.144531 229.257812 291.214844 225.75 290.40625 C 224.488281 290.109375 223.191406 289.988281 221.929688 289.722656 C 218.675781 289.035156 215.722656 289.722656 212.882812 291.394531 C 208.355469 293.988281 204.265625 297.144531 200.617188 300.867188 C 199.722656 301.804688 198.882812 302.789062 198.089844 303.816406 C 196.917969 305.292969 196.136719 306.953125 195.746094 308.796875 C 204.503906 308.222656 213.09375 306.710938 221.519531 304.261719 C 229.945312 301.816406 238.007812 298.488281 245.707031 294.285156 Z M 245.3125 294.296875 " fill-opacity="1" fill-rule="nonzero"/><path fill="#ffffff" d="M 266.800781 275.042969 C 264.539062 273.78125 262.355469 272.378906 260.082031 271.148438 C 257.96875 269.988281 255.832031 268.890625 253.621094 267.957031 C 252.148438 267.351562 250.617188 267.007812 249.03125 266.929688 C 247.441406 266.847656 245.882812 267.035156 244.359375 267.488281 C 237.523438 269.34375 231.976562 273.207031 227.496094 278.621094 C 226.765625 279.582031 226.183594 280.628906 225.761719 281.757812 C 225.683594 281.957031 225.652344 282.164062 225.664062 282.375 C 225.679688 282.589844 225.742188 282.789062 225.847656 282.972656 C 225.949219 283.160156 226.089844 283.3125 226.265625 283.4375 C 226.441406 283.558594 226.632812 283.636719 226.84375 283.675781 C 227.203125 283.753906 227.566406 283.796875 227.9375 283.8125 L 245.667969 284.96875 C 250.101562 285.261719 254.539062 285.558594 258.980469 285.863281 C 262.894531 283.011719 266.625 279.941406 270.175781 276.648438 C 269.003906 276.210938 267.878906 275.675781 266.800781 275.042969 Z M 266.800781 275.042969 " fill-opacity="1" fill-rule="nonzero"/><path fill="#ffffff" d="M 280.039062 252.148438 C 275.40625 253.757812 270.777344 255.398438 266.148438 256.972656 C 264.445312 257.527344 262.960938 258.433594 261.691406 259.691406 C 261.167969 260.21875 260.730469 260.808594 260.386719 261.464844 C 260.253906 261.710938 260.160156 261.972656 260.109375 262.25 C 260.058594 262.527344 260.050781 262.804688 260.089844 263.082031 C 260.128906 263.363281 260.210938 263.628906 260.335938 263.878906 C 260.457031 264.132812 260.617188 264.359375 260.816406 264.558594 C 261.65625 265.453125 262.664062 266.085938 263.832031 266.460938 C 267.363281 267.84375 270.898438 269.214844 274.425781 270.605469 C 274.871094 270.777344 275.308594 270.960938 275.761719 271.152344 C 282.542969 263.996094 288.375 256.132812 293.253906 247.566406 Z M 280.039062 252.148438 " fill-opacity="1" fill-rule="nonzero"/><path fill="#ffffff" d="M 111.378906 240.671875 C 110.546875 240.382812 109.738281 239.773438 108.484375 240.179688 C 109.214844 240.804688 109.800781 241.335938 110.4375 241.851562 C 119.152344 248.566406 127.875 255.273438 136.601562 261.96875 C 137.550781 262.707031 138.546875 263.367188 139.597656 263.953125 C 143.164062 265.898438 146.714844 267.902344 150.378906 269.648438 C 153.785156 271.273438 157.324219 272.675781 160.84375 274.035156 C 162.492188 274.648438 164.1875 275.082031 165.929688 275.332031 C 167.125 275.5 168.304688 275.449219 169.480469 275.175781 C 169.78125 275.117188 170.058594 275 170.308594 274.816406 C 170.558594 274.636719 170.757812 274.410156 170.90625 274.140625 C 171.054688 273.871094 171.136719 273.582031 171.15625 273.273438 C 171.175781 272.964844 171.128906 272.667969 171.011719 272.378906 C 170.722656 271.304688 170.261719 270.304688 169.628906 269.386719 C 168.410156 267.757812 167.078125 266.230469 165.636719 264.796875 C 162.738281 262.050781 159.5625 259.679688 156.109375 257.679688 C 151.628906 255.0625 146.929688 252.941406 142.007812 251.3125 C 131.789062 247.769531 121.597656 244.183594 111.378906 240.671875 Z M 111.378906 240.671875 " fill-opacity="1" fill-rule="nonzero"/><path fill="#ffffff" d="M 71.996094 225.101562 C 74.582031 233.085938 77.964844 240.71875 82.148438 248 C 82.339844 248.117188 82.523438 248.261719 82.726562 248.347656 C 90.65625 252.09375 98.554688 255.941406 106.542969 259.601562 C 111 261.632812 115.589844 263.363281 120.148438 265.15625 C 121.546875 265.640625 122.96875 266.042969 124.410156 266.367188 C 124.773438 266.445312 125.140625 266.472656 125.511719 266.453125 C 125.875 266.460938 126.136719 266.300781 126.300781 265.976562 C 126.464844 265.652344 126.4375 265.347656 126.214844 265.058594 C 125.867188 264.511719 125.46875 264 125.023438 263.53125 C 124.386719 262.863281 123.703125 262.238281 123.003906 261.632812 C 109.898438 250.152344 96.121094 239.542969 81.128906 230.632812 C 78.042969 228.824219 75.050781 226.902344 71.996094 225.101562 Z M 71.996094 225.101562 " fill-opacity="1" fill-rule="nonzero"/><g clip-path="url(#05de87a690)"><path fill="#ffffff" d="M 70.710938 209.632812 C 76.390625 213.105469 82.015625 216.683594 87.734375 220.097656 C 98.433594 226.585938 109.574219 232.210938 121.144531 236.972656 C 128.679688 240.105469 136.449219 242.492188 144.445312 244.128906 C 145.710938 244.375 146.996094 244.550781 148.28125 244.707031 C 149.183594 244.816406 149.191406 244.777344 150.597656 244.128906 C 150.660156 243.269531 150.097656 242.738281 149.539062 242.28125 C 148.347656 241.242188 147.101562 240.277344 145.796875 239.386719 C 142.535156 237.28125 139.238281 235.214844 135.90625 233.226562 C 132.011719 230.914062 128.089844 228.625 124.121094 226.4375 C 112.433594 219.945312 101.394531 212.492188 91.003906 204.078125 C 82.722656 197.410156 74.433594 190.742188 66.132812 184.082031 C 66.132812 185.242188 66.078125 186.398438 66.078125 187.554688 C 66.082031 194.421875 66.664062 201.238281 67.816406 208.007812 C 68.832031 208.457031 69.796875 209 70.710938 209.632812 Z M 70.710938 209.632812 " fill-opacity="1" fill-rule="nonzero"/></g><path fill="#ffffff" d="M 147.847656 232.457031 C 148.960938 233.691406 150.164062 234.84375 151.394531 235.964844 C 151.957031 236.449219 152.574219 236.832031 153.253906 237.125 C 154.273438 237.59375 155.246094 237.125 155.257812 236.011719 C 155.3125 234.441406 155.203125 232.882812 154.925781 231.335938 C 153.683594 225.351562 152.082031 219.46875 150.117188 213.6875 C 147.40625 205.753906 143.785156 198.28125 138.539062 191.691406 C 135.039062 187.25 131.242188 183.078125 127.148438 179.179688 C 124.222656 176.308594 120.964844 173.890625 117.371094 171.921875 C 116.300781 171.261719 115.140625 170.832031 113.898438 170.632812 C 114.238281 171.515625 114.40625 172.03125 114.628906 172.53125 C 117.046875 177.929688 119.484375 183.324219 121.898438 188.738281 C 124.875 195.410156 127.859375 202.078125 131.304688 208.535156 C 135.839844 217.1875 141.351562 225.160156 147.847656 232.457031 Z M 147.847656 232.457031 " fill-opacity="1" fill-rule="nonzero"/><path fill="#ffffff" d="M 100.585938 103.757812 C 103.292969 107.390625 105.949219 111.074219 108.6875 114.683594 C 111.113281 117.96875 113.78125 121.035156 116.699219 123.890625 C 117.289062 124.476562 117.917969 125.023438 118.582031 125.527344 C 120.214844 126.683594 121.539062 126.394531 122.484375 124.660156 C 123.554688 122.652344 124.066406 120.511719 124.015625 118.238281 C 123.988281 115.460938 123.796875 112.695312 123.4375 109.9375 C 122.75 104.878906 121.523438 99.949219 119.761719 95.15625 C 119.304688 93.851562 118.773438 92.574219 118.175781 91.328125 C 117.730469 90.492188 117.246094 89.683594 116.71875 88.898438 C 110.769531 93.179688 105.25 97.957031 100.164062 103.230469 C 100.3125 103.398438 100.453125 103.574219 100.585938 103.757812 Z M 100.585938 103.757812 " fill-opacity="1" fill-rule="nonzero"/><g clip-path="url(#9548016ce6)"><path fill="#ffffff" d="M 308.667969 177.601562 C 308.089844 178.027344 307.511719 178.441406 306.886719 178.804688 C 302.425781 181.433594 297.945312 184.03125 293.445312 186.59375 C 289.394531 188.910156 285.339844 191.035156 281.324219 193.351562 C 277.679688 195.402344 274.292969 197.8125 271.160156 200.582031 C 269.683594 201.980469 268.304688 203.472656 267.019531 205.050781 C 266.5 205.628906 265.972656 206.386719 266.304688 207.335938 C 266.882812 208.011719 267.664062 207.84375 268.347656 207.664062 C 269.417969 207.375 270.46875 207.019531 271.496094 206.59375 C 283.457031 201.894531 295.421875 197.183594 307.382812 192.464844 C 307.921875 192.25 308.460938 192.046875 309.011719 191.851562 C 309.054688 190.433594 309.089844 189.007812 309.089844 187.578125 C 309.078125 184.214844 308.933594 180.886719 308.667969 177.601562 Z M 308.667969 177.601562 " fill-opacity="1" fill-rule="nonzero"/></g><g clip-path="url(#fa8055f800)"><path fill="#ffffff" d="M 187.367188 67.238281 C 189.039062 72.335938 190.636719 77.453125 192.359375 82.535156 C 193.625 86.320312 195.230469 89.957031 197.183594 93.4375 C 197.578125 94.128906 197.820312 94.988281 198.890625 95.382812 C 199.125 95.023438 199.292969 94.636719 199.398438 94.222656 C 199.527344 92.9375 199.621094 91.640625 199.621094 90.351562 C 199.621094 82.941406 199.621094 75.539062 199.621094 68.128906 C 199.621094 67.648438 199.578125 67.164062 199.585938 66.671875 C 195.625 66.277344 191.625 66.078125 187.578125 66.078125 L 187 66.078125 C 187.152344 66.472656 187.242188 66.855469 187.367188 67.238281 Z M 187.367188 67.238281 " fill-opacity="1" fill-rule="nonzero"/></g><path fill="#ffffff" d="M 196.414062 218.929688 C 196.34375 221.152344 196.238281 223.375 196.332031 225.59375 C 196.398438 226.976562 196.648438 228.328125 197.085938 229.644531 C 197.546875 231.070312 198.878906 231.382812 199.902344 230.277344 C 200.859375 229.265625 201.640625 228.136719 202.253906 226.890625 C 204.054688 223.046875 204.875 219.003906 204.71875 214.761719 C 204.480469 204.84375 205.007812 194.964844 206.300781 185.125 C 206.960938 179.507812 208.117188 173.992188 209.773438 168.582031 C 209.90625 168.164062 210.027344 167.742188 210.148438 167.320312 L 209.730469 167.175781 C 209.480469 167.4375 209.242188 167.714844 209.019531 168.003906 C 206.839844 171.214844 204.605469 174.398438 202.515625 177.675781 C 201.175781 179.777344 200.019531 182 198.855469 184.210938 C 197.800781 186.3125 197.273438 188.539062 197.273438 190.890625 C 197.039062 200.246094 196.695312 209.585938 196.414062 218.929688 Z M 196.414062 218.929688 " fill-opacity="1" fill-rule="nonzero"/><path fill="#ffffff" d="M 178.953125 266.511719 C 180.425781 267.414062 181.847656 267.089844 182.792969 265.609375 C 183.378906 264.664062 183.820312 263.652344 184.117188 262.582031 C 184.828125 259.78125 185.25 256.9375 185.378906 254.046875 C 185.132812 251.734375 184.941406 249.453125 184.632812 247.167969 C 183.789062 240.914062 181.738281 235.132812 177.960938 230.015625 C 177.027344 228.746094 176.128906 227.457031 175.191406 226.195312 C 170.945312 220.574219 167.042969 214.730469 163.476562 208.65625 C 163.058594 207.9375 162.601562 207.242188 162.105469 206.570312 C 161.8125 206.210938 161.480469 205.898438 161.101562 205.628906 C 160.988281 205.550781 160.859375 205.5 160.71875 205.476562 C 160.582031 205.453125 160.445312 205.460938 160.308594 205.496094 C 160.171875 205.53125 160.050781 205.59375 159.941406 205.683594 C 159.832031 205.773438 159.746094 205.878906 159.683594 206.003906 C 159.390625 206.683594 159.195312 207.394531 159.105469 208.128906 C 158.886719 211.550781 158.851562 214.988281 159.644531 218.351562 C 161.269531 225.296875 162.921875 232.214844 164.679688 239.113281 C 166.683594 246.964844 169.652344 254.425781 174.171875 261.199219 C 174.929688 262.363281 175.757812 263.472656 176.65625 264.53125 C 177.324219 265.308594 178.089844 265.96875 178.953125 266.511719 Z M 178.953125 266.511719 " fill-opacity="1" fill-rule="nonzero"/><path fill="#ffffff" d="M 188.464844 184.582031 C 188.273438 173.121094 187.480469 161.664062 188.273438 150.214844 C 186.40625 148.015625 184.429688 145.921875 182.722656 143.628906 C 181.015625 141.335938 179.464844 138.730469 177.566406 135.84375 C 177.316406 138.65625 177.089844 141.050781 176.886719 143.40625 C 176.230469 151.351562 174.960938 159.199219 173.074219 166.945312 C 172.074219 170.996094 170.960938 174.996094 169.78125 178.984375 C 168.917969 181.785156 168.429688 184.652344 168.304688 187.578125 C 168.183594 190.507812 168.4375 193.40625 169.0625 196.269531 C 171.054688 205.171875 175.824219 212.609375 181.546875 219.519531 C 181.917969 219.9375 182.34375 220.292969 182.820312 220.578125 C 183.042969 220.761719 183.292969 220.890625 183.570312 220.960938 C 183.847656 221.03125 184.125 221.035156 184.40625 220.980469 C 184.6875 220.925781 184.941406 220.8125 185.171875 220.640625 C 185.402344 220.46875 185.582031 220.253906 185.714844 220 C 186.140625 219.390625 186.464844 218.730469 186.695312 218.019531 C 187.027344 216.960938 187.285156 215.886719 187.46875 214.792969 C 188.148438 210.671875 188.496094 206.527344 188.511719 202.351562 C 188.539062 196.429688 188.5625 190.53125 188.464844 184.582031 Z M 188.464844 184.582031 " fill-opacity="1" fill-rule="nonzero"/><path fill="#ffffff" d="M 77.953125 136.277344 C 80.609375 139.113281 83.230469 141.984375 85.882812 144.824219 C 88.34375 147.464844 90.757812 150.15625 93.324219 152.6875 C 95.304688 154.625 97.453125 156.402344 99.605469 158.144531 C 103.144531 160.992188 107.304688 162.503906 111.664062 163.539062 C 112.460938 163.730469 113.402344 164.089844 113.902344 163.167969 C 114.316406 162.398438 113.550781 161.816406 113.097656 161.265625 C 112.328125 160.34375 111.507812 159.464844 110.695312 158.574219 L 83.203125 128.398438 L 82.125 127.195312 C 80.492188 130.035156 78.976562 132.949219 77.582031 135.933594 C 77.707031 136.046875 77.835938 136.160156 77.953125 136.277344 Z M 77.953125 136.277344 " fill-opacity="1" fill-rule="nonzero"/><g clip-path="url(#2cd60bc73f)"><path fill="#ffffff" d="M 184.113281 296.824219 C 184.007812 294.769531 183.554688 292.792969 182.757812 290.898438 C 181.4375 287.742188 179.011719 286.132812 175.625 286.09375 C 172.875 286.007812 170.320312 286.667969 167.957031 288.078125 C 160.832031 292.390625 153.648438 296.601562 146.488281 300.84375 C 146.105469 301.074219 145.730469 301.316406 145.328125 301.53125 C 157.9375 306.207031 170.960938 308.714844 184.402344 309.054688 C 184.402344 307.667969 184.402344 306.277344 184.402344 304.882812 C 184.417969 302.1875 184.25 299.503906 184.113281 296.824219 Z M 184.113281 296.824219 " fill-opacity="1" fill-rule="nonzero"/></g><path fill="#ffffff" d="M 197.777344 161.515625 C 197.707031 162.53125 197.707031 163.546875 197.777344 164.566406 C 197.84375 165.601562 198.039062 166.675781 199.167969 167.070312 C 200.296875 167.464844 201.128906 166.71875 201.847656 165.996094 C 202.863281 165.023438 203.660156 163.898438 204.234375 162.617188 C 204.808594 161.335938 205.125 159.996094 205.175781 158.589844 C 205.34375 154.707031 205.53125 150.824219 205.796875 146.945312 C 206.199219 139.808594 207.320312 132.789062 209.160156 125.878906 C 209.597656 124.289062 210.085938 122.714844 210.546875 121.128906 C 208.851562 122.019531 207.757812 123.378906 206.625 124.699219 C 203.695312 128.039062 201.726562 131.871094 200.71875 136.195312 C 199.960938 139.34375 199.394531 142.527344 199.011719 145.746094 C 198.472656 150.984375 198.160156 156.257812 197.777344 161.515625 Z M 197.777344 161.515625 " fill-opacity="1" fill-rule="nonzero"/><path fill="#ffffff" d="M 158.441406 288.542969 C 159.007812 288.21875 159.519531 287.824219 159.96875 287.351562 C 161.480469 285.820312 161.382812 284.195312 159.660156 282.851562 C 157.824219 281.519531 155.78125 280.714844 153.527344 280.4375 C 151.058594 280.039062 148.578125 279.761719 146.105469 279.402344 C 126.679688 276.589844 108.335938 270.59375 91.257812 260.816406 L 90.148438 260.179688 C 96.195312 268.28125 103.144531 275.523438 110.992188 281.898438 C 118.839844 288.273438 127.347656 293.589844 136.519531 297.851562 C 136.960938 297.652344 137.359375 297.46875 137.765625 297.304688 C 143.332031 295.03125 148.90625 292.785156 154.464844 290.488281 C 155.824219 289.90625 157.148438 289.257812 158.441406 288.542969 Z M 158.441406 288.542969 " fill-opacity="1" fill-rule="nonzero"/><path fill="#ffffff" d="M 139.59375 156.714844 C 143.417969 167.136719 146.765625 177.6875 149.710938 188.378906 C 150.238281 190.242188 150.902344 192.058594 151.703125 193.824219 C 152.136719 194.75 152.734375 195.558594 153.492188 196.246094 C 154.589844 197.28125 155.964844 197.03125 156.789062 195.753906 C 157.578125 194.5625 157.980469 193.25 158 191.824219 C 158.121094 189.328125 158.042969 186.84375 157.773438 184.359375 C 157.097656 179.800781 156.21875 175.257812 155.214844 170.753906 C 153.570312 163.441406 151.402344 156.292969 148.703125 149.300781 C 148.523438 148.726562 148.222656 148.222656 147.800781 147.792969 C 147.382812 147.359375 146.886719 147.042969 146.320312 146.847656 C 142.792969 145.472656 139.308594 143.992188 135.800781 142.5625 C 135.398438 142.402344 134.960938 142.296875 134.019531 141.984375 C 134.441406 143.175781 134.667969 143.863281 134.929688 144.542969 C 136.457031 148.613281 138.066406 152.640625 139.59375 156.714844 Z M 139.59375 156.714844 " fill-opacity="1" fill-rule="nonzero"/><path fill="#ffffff" d="M 145.816406 133.359375 C 145.867188 132.152344 145.722656 130.96875 145.382812 129.8125 C 144.621094 127.335938 143.707031 124.917969 142.648438 122.558594 C 138.726562 114.152344 133.800781 106.351562 128.433594 98.785156 C 127.90625 98.144531 127.347656 97.535156 126.753906 96.957031 C 127.089844 98.242188 127.28125 98.929688 127.441406 99.628906 C 128.023438 102.054688 128.785156 104.457031 129.085938 106.917969 C 129.597656 111.039062 129.839844 115.199219 130.117188 119.34375 C 130.261719 121.839844 130.59375 124.3125 131.117188 126.753906 C 132.492188 132.890625 138.46875 135.351562 142.730469 136.015625 C 144.617188 136.328125 145.773438 135.257812 145.816406 133.359375 Z M 145.816406 133.359375 " fill-opacity="1" fill-rule="nonzero"/><path fill="#ffffff" d="M 158.457031 71.753906 C 160.128906 79.53125 161.722656 87.324219 163.492188 95.078125 C 164.625 99.964844 166.246094 104.683594 168.355469 109.234375 C 168.742188 110.070312 169.144531 110.90625 169.605469 111.703125 C 169.769531 111.988281 170.132812 112.15625 170.542969 112.484375 C 170.832031 111.96875 171.199219 111.605469 171.226562 111.21875 C 171.351562 109.929688 171.351562 108.640625 171.226562 107.351562 C 170.277344 100.40625 169.246094 93.425781 168.246094 86.464844 C 167.429688 80.789062 166.613281 75.113281 165.804688 69.429688 C 165.738281 68.96875 165.703125 68.503906 165.675781 68.046875 C 163.09375 68.519531 160.542969 69.070312 158.019531 69.703125 C 158.214844 70.375 158.3125 71.070312 158.457031 71.753906 Z M 158.457031 71.753906 " fill-opacity="1" fill-rule="nonzero"/><path fill="#ffffff" d="M 125.996094 83.785156 C 129.59375 87.542969 132.785156 91.613281 135.570312 96.007812 C 140.964844 104.445312 145.511719 113.324219 149.207031 122.632812 C 153.878906 134.152344 157.617188 145.953125 159.804688 158.210938 C 160.386719 161.578125 160.734375 164.988281 161.238281 168.375 C 161.398438 169.472656 161.652344 170.550781 162 171.609375 C 162.261719 172.148438 162.589844 172.640625 162.984375 173.089844 C 163.390625 173.03125 163.75 172.863281 164.054688 172.589844 C 164.363281 172.3125 164.570312 171.976562 164.675781 171.582031 C 165.4375 169.601562 166.261719 167.625 166.851562 165.589844 C 168.226562 160.582031 169.15625 155.492188 169.640625 150.320312 C 170.21875 145.074219 170.707031 139.824219 171.1875 134.570312 C 171.355469 133 171.402344 131.429688 171.332031 129.855469 C 171.292969 128.46875 171.050781 127.117188 170.601562 125.804688 C 169.625 123.222656 168.410156 120.730469 167.285156 118.183594 C 166.648438 118.066406 166.128906 117.925781 165.546875 117.878906 C 162.21875 117.613281 159.304688 116.28125 156.589844 114.40625 C 154.125 112.753906 151.933594 110.796875 150.011719 108.53125 C 147.34375 105.335938 144.6875 102.117188 142.289062 98.691406 C 138.132812 92.792969 134.1875 86.75 130.136719 80.746094 C 130.085938 80.675781 130.039062 80.601562 129.996094 80.523438 C 128.425781 81.367188 126.882812 82.246094 125.363281 83.15625 C 125.578125 83.394531 125.800781 83.585938 125.996094 83.785156 Z M 125.996094 83.785156 " fill-opacity="1" fill-rule="nonzero"/></svg>